<svg width="41" height="41" viewBox="0 0 41 41" fill="none" xmlns="http://www.w3.org/2000/svg">
<mask id="path-1-inside-1_1297_4495" fill="white">
<path d="M20.3474 21.8942L27.4224 28.9692C27.5345 29.1001 27.6724 29.2063 27.8274 29.2814C27.9825 29.3564 28.1514 29.3986 28.3236 29.4052C28.4957 29.4119 28.6674 29.3829 28.8278 29.32C28.9882 29.2572 29.1339 29.1618 29.2557 29.04C29.3775 28.9182 29.4729 28.7725 29.5357 28.6121C29.5985 28.4517 29.6275 28.28 29.6209 28.1079C29.6142 27.9358 29.5721 27.7668 29.4971 27.6118C29.422 27.4567 29.3157 27.3188 29.1849 27.2067L22.1099 20.1317L29.1849 13.0567C29.3897 12.8176 29.4967 12.51 29.4845 12.1954C29.4724 11.8808 29.342 11.5824 29.1194 11.3598C28.8967 11.1371 28.5983 11.0067 28.2837 10.9946C27.9691 10.9824 27.6615 11.0894 27.4224 11.2942L20.3474 18.3692L13.2724 11.2942C13.0382 11.0614 12.7214 10.9307 12.3912 10.9307C12.0609 10.9307 11.7441 11.0614 11.5099 11.2942C11.2771 11.5284 11.1464 11.8452 11.1464 12.1755C11.1464 12.5057 11.2771 12.8225 11.5099 13.0567L18.5849 20.1317L11.5099 27.2067C11.2771 27.4409 11.1464 27.7577 11.1464 28.088C11.1464 28.4182 11.2771 28.735 11.5099 28.9692C11.7441 29.202 12.0609 29.3327 12.3912 29.3327C12.7214 29.3327 13.0382 29.202 13.2724 28.9692L20.3474 21.8942Z"/>
</mask>
<path d="M20.3474 21.8942L27.4224 28.9692C27.5345 29.1001 27.6724 29.2063 27.8274 29.2814C27.9825 29.3564 28.1514 29.3986 28.3236 29.4052C28.4957 29.4119 28.6674 29.3829 28.8278 29.32C28.9882 29.2572 29.1339 29.1618 29.2557 29.04C29.3775 28.9182 29.4729 28.7725 29.5357 28.6121C29.5985 28.4517 29.6275 28.28 29.6209 28.1079C29.6142 27.9358 29.5721 27.7668 29.4971 27.6118C29.422 27.4567 29.3157 27.3188 29.1849 27.2067L22.1099 20.1317L29.1849 13.0567C29.3897 12.8176 29.4967 12.51 29.4845 12.1954C29.4724 11.8808 29.342 11.5824 29.1194 11.3598C28.8967 11.1371 28.5983 11.0067 28.2837 10.9946C27.9691 10.9824 27.6615 11.0894 27.4224 11.2942L20.3474 18.3692L13.2724 11.2942C13.0382 11.0614 12.7214 10.9307 12.3912 10.9307C12.0609 10.9307 11.7441 11.0614 11.5099 11.2942C11.2771 11.5284 11.1464 11.8452 11.1464 12.1755C11.1464 12.5057 11.2771 12.8225 11.5099 13.0567L18.5849 20.1317L11.5099 27.2067C11.2771 27.4409 11.1464 27.7577 11.1464 28.088C11.1464 28.4182 11.2771 28.735 11.5099 28.9692C11.7441 29.202 12.0609 29.3327 12.3912 29.3327C12.7214 29.3327 13.0382 29.202 13.2724 28.9692L20.3474 21.8942Z" fill="black"/>
<path d="M20.3474 21.8942L22.1152 20.1264L20.3474 18.3587L18.5796 20.1264L20.3474 21.8942ZM27.4224 28.9692L29.3213 27.3431L29.2584 27.2697L29.1902 27.2014L27.4224 28.9692ZM29.1849 27.2067L27.4171 28.9745L27.4854 29.0428L27.5588 29.1056L29.1849 27.2067ZM22.1099 20.1317L20.3421 18.364L18.5744 20.1317L20.3421 21.8995L22.1099 20.1317ZM29.1849 13.0567L30.9527 14.8245L31.0209 14.7562L31.0838 14.6829L29.1849 13.0567ZM27.4224 11.2942L25.7963 9.39536L25.7229 9.45817L25.6546 9.52645L27.4224 11.2942ZM20.3474 18.3692L18.5796 20.137L20.3474 21.9048L22.1152 20.137L20.3474 18.3692ZM13.2724 11.2942L15.0402 9.52644L15.0349 9.5212L13.2724 11.2942ZM11.5099 11.2942L9.7474 9.5212L9.74213 9.52644L9.73688 9.53172L11.5099 11.2942ZM11.5099 13.0567L9.73687 14.8192L9.74213 14.8245L11.5099 13.0567ZM18.5849 20.1317L20.3527 21.8995L22.1204 20.1317L20.3527 18.364L18.5849 20.1317ZM11.5099 27.2067L9.74213 25.4389L9.73688 25.4442L11.5099 27.2067ZM11.5099 28.9692L9.73688 30.7317L9.74213 30.737L9.7474 30.7422L11.5099 28.9692ZM13.2724 28.9692L15.0349 30.7422L15.0402 30.737L13.2724 28.9692ZM18.5796 23.662L25.6546 30.737L29.1902 27.2014L22.1152 20.1264L18.5796 23.662ZM25.5235 30.5954C25.8597 30.9879 26.2734 31.3067 26.7387 31.5318L28.9162 27.0309C29.0713 27.1059 29.2092 27.2122 29.3213 27.3431L25.5235 30.5954ZM26.7387 31.5318C27.2039 31.7569 27.7106 31.8834 28.2271 31.9034L28.4201 26.9071C28.5922 26.9137 28.7611 26.9559 28.9162 27.0309L26.7387 31.5318ZM28.2271 31.9034C28.7435 31.9233 29.2585 31.8363 29.7397 31.6477L27.9159 26.9923C28.0763 26.9294 28.2479 26.9004 28.4201 26.9071L28.2271 31.9034ZM29.7397 31.6477C30.221 31.4592 30.658 31.1733 31.0235 30.8078L27.4879 27.2723C27.6098 27.1504 27.7554 27.0551 27.9159 26.9923L29.7397 31.6477ZM31.0235 30.8078C31.3889 30.4423 31.6749 30.0053 31.8634 29.5241L27.208 27.7002C27.2708 27.5398 27.3661 27.3941 27.4879 27.2723L31.0235 30.8078ZM31.8634 29.5241C32.052 29.0429 32.139 28.5279 32.119 28.0114L27.1228 28.2044C27.1161 28.0322 27.1451 27.8606 27.208 27.7002L31.8634 29.5241ZM32.119 28.0114C32.0991 27.495 31.9726 26.9882 31.7475 26.523L27.2466 28.7005C27.1716 28.5455 27.1294 28.3765 27.1228 28.2044L32.119 28.0114ZM31.7475 26.523C31.5224 26.0577 31.2036 25.644 30.811 25.3079L27.5588 29.1056C27.4279 28.9935 27.3216 28.8556 27.2466 28.7005L31.7475 26.523ZM30.9527 25.439L23.8777 18.364L20.3421 21.8995L27.4171 28.9745L30.9527 25.439ZM23.8777 21.8995L30.9527 14.8245L27.4171 11.289L20.3421 18.364L23.8777 21.8995ZM31.0838 14.6829C31.6981 13.9655 32.0191 13.0427 31.9827 12.0989L26.9864 12.2919C26.9742 11.9773 27.0813 11.6697 27.286 11.4306L31.0838 14.6829ZM31.9827 12.0989C31.9462 11.1551 31.555 10.2598 30.8871 9.592L27.3516 13.1275C27.129 12.9049 26.9986 12.6065 26.9864 12.2919L31.9827 12.0989ZM30.8871 9.592C30.2193 8.92414 29.324 8.53289 28.3802 8.49644L28.1872 13.4927C27.8726 13.4806 27.5742 13.3501 27.3516 13.1275L30.8871 9.592ZM28.3802 8.49644C27.4364 8.45999 26.5136 8.78101 25.7963 9.39536L29.0485 13.1931C28.8094 13.3979 28.5018 13.5049 28.1872 13.4927L28.3802 8.49644ZM25.6546 9.52645L18.5796 16.6015L22.1152 20.137L29.1902 13.062L25.6546 9.52645ZM22.1152 16.6015L15.0402 9.52645L11.5046 13.062L18.5796 20.137L22.1152 16.6015ZM15.0349 9.5212C14.3323 8.82276 13.3819 8.43073 12.3912 8.43073V13.4307C12.0609 13.4307 11.7441 13.3 11.5099 13.0672L15.0349 9.5212ZM12.3912 8.43073C11.4004 8.43073 10.45 8.82276 9.7474 9.5212L13.2724 13.0672C13.0382 13.3 12.7214 13.4307 12.3912 13.4307V8.43073ZM9.73688 9.53172C9.03844 10.2343 8.64641 11.1848 8.64641 12.1755H13.6464C13.6464 12.5057 13.5157 12.8225 13.2829 13.0567L9.73688 9.53172ZM8.64641 12.1755C8.64641 13.1662 9.03844 14.1166 9.73688 14.8192L13.2829 11.2942C13.5157 11.5284 13.6464 11.8452 13.6464 12.1755H8.64641ZM9.74213 14.8245L16.8171 21.8995L20.3527 18.364L13.2777 11.289L9.74213 14.8245ZM16.8171 18.364L9.74213 25.439L13.2777 28.9745L20.3527 21.8995L16.8171 18.364ZM9.73688 25.4442C9.03844 26.1468 8.64641 27.0973 8.64641 28.088H13.6464C13.6464 28.4182 13.5157 28.735 13.2829 28.9692L9.73688 25.4442ZM8.64641 28.088C8.64641 29.0787 9.03844 30.0291 9.73688 30.7317L13.2829 27.2067C13.5157 27.4409 13.6464 27.7577 13.6464 28.088H8.64641ZM9.7474 30.7422C10.45 31.4407 11.4005 31.8327 12.3912 31.8327V26.8327C12.7214 26.8327 13.0382 26.9634 13.2724 27.1962L9.7474 30.7422ZM12.3912 31.8327C13.3818 31.8327 14.3323 31.4407 15.0349 30.7422L11.5099 27.1962C11.7441 26.9634 12.0609 26.8327 12.3912 26.8327V31.8327ZM15.0402 30.737L22.1152 23.662L18.5796 20.1264L11.5046 27.2014L15.0402 30.737Z" fill="#FCFCFC" mask="url(#path-1-inside-1_1297_4495)"/>
</svg>
